<svg width="20" height="18" viewBox="0 0 20 18" fill="none" xmlns="http://www.w3.org/2000/svg">
<path id="cart" d="M18.75 6.00068H16.151L12.374 0.334682C12.144 -0.010318 11.677 -0.104318 11.334 0.126682C10.989 0.356682 10.896 0.821682 11.126 1.16668L14.349 6.00068H5.151L8.374 1.16668C8.604 0.821682 8.511 0.356682 8.166 0.126682C7.821 -0.103318 7.356 -0.010318 7.126 0.334682L3.349 6.00068H0.75C0.336 6.00068 0 6.33668 0 6.75068C0 7.16468 0.336 7.50068 0.75 7.50068H1.135L2.693 15.2897C2.949 16.5707 4.083 17.5007 5.39 17.5007H14.111C15.418 17.5007 16.551 16.5707 16.808 15.2897L18.366 7.50068H18.751C19.165 7.50068 19.501 7.16468 19.501 6.75068C19.501 6.33668 19.164 6.00068 18.75 6.00068ZM15.336 14.9957C15.219 15.5777 14.704 16.0007 14.11 16.0007H5.39C4.796 16.0007 4.281 15.5777 4.164 14.9957L2.665 7.50068H16.835L15.336 14.9957ZM11 12.7507V10.7507C11 10.3367 11.336 10.0007 11.75 10.0007C12.164 10.0007 12.5 10.3367 12.5 10.7507V12.7507C12.5 13.1647 12.164 13.5007 11.75 13.5007C11.336 13.5007 11 13.1647 11 12.7507ZM7 12.7507V10.7507C7 10.3367 7.336 10.0007 7.75 10.0007C8.164 10.0007 8.5 10.3367 8.5 10.7507V12.7507C8.5 13.1647 8.164 13.5007 7.75 13.5007C7.336 13.5007 7 13.1647 7 12.7507Z" fill="white"/>
</svg>
